<svg width="940" height="266" xmlns="http://www.w3.org/2000/svg" xmlns:xlink="http://www.w3.org/1999/xlink" xml:space="preserve" overflow="hidden"><defs><clipPath id="clip0"><rect x="199" y="227" width="940" height="266"/></clipPath></defs><g clip-path="url(#clip0)" transform="translate(-199 -227)"><path d="M371.434 344.681C371.434 335.987 378.482 328.939 387.176 328.939L607.117 328.939C615.813 328.939 622.86 335.987 622.86 344.681L622.86 564.623C622.86 573.319 615.813 580.366 607.117 580.366L387.176 580.366C378.482 580.366 371.434 573.319 371.434 564.623Z" fill="#8155BA" fill-rule="evenodd" transform="matrix(1 0 0 1.00367 -172.434 -97.1541)"/><path d="M463.907 552.772 419.437 351.908 508.369 345.072 492.858 507.365 560.928 480.85 574.857 564.233 463.907 552.772Z" fill="#FFFFFF" fill-rule="evenodd" transform="matrix(1 0 0 1.00367 -172.434 -97.1541)"/><text fill="#8155BA" font-family="DaytonaW01-Bold,DaytonaW01-Bold_MSFontService,sans-serif" font-weight="700" font-size="871" transform="matrix(0.393468 0 0 0.394912 462.785 485)">larn</text><text fill="#695E93" font-family="Daytona,Daytona_MSFontService,sans-serif" font-weight="700" font-size="128" transform="matrix(0.393468 0 0 0.394912 817.862 277)">Academy</text></g></svg>