<svg width="644" height="660" xmlns="http://www.w3.org/2000/svg" xmlns:xlink="http://www.w3.org/1999/xlink" xml:space="preserve" overflow="hidden"><defs><clipPath id="clip0"><rect x="2017" y="697" width="644" height="660"/></clipPath></defs><g clip-path="url(#clip0)" transform="translate(-2017 -697)"><path d="M2019.5 770.205C2019.5 731.156 2051.16 699.5 2090.21 699.5L2587.79 699.5C2626.84 699.5 2658.5 731.156 2658.5 770.205L2658.5 1267.79C2658.5 1306.84 2626.84 1338.5 2587.79 1338.5L2090.21 1338.5C2051.16 1338.5 2019.5 1306.84 2019.5 1267.79Z" stroke="#695E93" stroke-width="4.58333" stroke-miterlimit="8" fill="#FFFFFF" fill-rule="evenodd"/><path d="M2271.42 1163.68 2181 754.912 2361.81 741 2330.28 1071.27 2468.68 1017.31 2497 1187 2271.42 1163.68Z" fill="#8155BA" fill-rule="evenodd"/><text fill="#695E93" font-family="Daytona,Daytona_MSFontService,sans-serif" font-weight="400" font-size="73" transform="matrix(1 0 0 1 2097.06 1291)">Larn</text><text fill="#695E93" font-family="Daytona,Daytona_MSFontService,sans-serif" font-weight="400" font-size="73" transform="matrix(1 0 0 1 2280.39 1291)">Academy</text></g></svg>