<svg width="972" height="304" xmlns="http://www.w3.org/2000/svg" xmlns:xlink="http://www.w3.org/1999/xlink" xml:space="preserve" overflow="hidden"><defs><clipPath id="clip0"><rect x="179" y="203" width="972" height="304"/></clipPath><clipPath id="clip1"><rect x="198" y="202" width="953" height="305"/></clipPath><clipPath id="clip2"><rect x="198" y="74" width="1162" height="721"/></clipPath><clipPath id="clip3"><rect x="198" y="74" width="1162" height="721"/></clipPath></defs><g clip-path="url(#clip0)" transform="translate(-179 -203)"><g clip-path="url(#clip1)"><g clip-path="url(#clip2)"><g clip-path="url(#clip3)"><path d="M198.924 249.213C198.924 240.519 205.971 233.472 214.665 233.472L434.593 233.472C443.288 233.472 450.335 240.519 450.335 249.213L450.335 469.141C450.335 477.836 443.288 484.883 434.593 484.883L214.665 484.883C205.971 484.883 198.924 477.836 198.924 469.141Z" fill="#8155BA" fill-rule="evenodd"/><path d="M291.391 457.29 246.924 256.439 335.85 249.603 320.341 411.887 388.406 385.373 402.334 468.752 291.391 457.29Z" fill="#FFFFFF" fill-rule="evenodd"/><text fill="#8155BA" font-family="DaytonaW01-Bold,DaytonaW01-Bold_MSFontService,sans-serif" font-weight="700" font-size="871" transform="matrix(0.393444 0 0 0.393445 462.693 484)">larn</text><text fill="#695E93" font-family="Daytona,Daytona_MSFontService,sans-serif" font-weight="700" font-size="128" transform="matrix(0.393444 0 0 0.393445 817.749 277)">Academy</text></g></g></g></g></svg>