<svg width="2951" height="1830" xmlns="http://www.w3.org/2000/svg" xmlns:xlink="http://www.w3.org/1999/xlink" xml:space="preserve" overflow="hidden"><defs><clipPath id="clip0"><rect x="944" y="431" width="2951" height="1830"/></clipPath></defs><g clip-path="url(#clip0)" transform="translate(-944 -431)"><path d="M944 876.008C944 853.912 961.912 836 984.008 836L1542.99 836C1565.09 836 1583 853.912 1583 876.008L1583 1434.99C1583 1457.09 1565.09 1475 1542.99 1475L984.008 1475C961.912 1475 944 1457.09 944 1434.99Z" fill="#8155BA" fill-rule="evenodd"/><path d="M1179.02 1404.87 1066 894.374 1292.02 877 1252.6 1289.47 1425.6 1222.08 1461 1434 1179.02 1404.87Z" fill="#FFFFFF" fill-rule="evenodd"/><text fill="#8155BA" font-family="DaytonaW01-Bold,DaytonaW01-Bold_MSFontService,sans-serif" font-weight="700" font-size="871" transform="matrix(1 0 0 1 1614.41 1473)">larn</text><text fill="#695E93" font-family="Daytona,Daytona_MSFontService,sans-serif" font-weight="700" font-size="128" transform="matrix(1 0 0 1 2516.84 947)">Academy</text></g></svg>